<mxfile host="app.diagrams.net" modified="2023-07-22T13:47:23.667Z" agent="Mozilla/5.0 (X11; Linux x86_64; rv:109.0) Gecko/20100101 Firefox/115.0" etag="Rpln7lzxANJ9ztrF4Ubq" version="21.6.5" type="device">
  <diagram name="Page-1" id="RQzIyzp8Y1V32AGrG90v">
    <mxGraphModel dx="1434" dy="781" grid="1" gridSize="10" guides="1" tooltips="1" connect="1" arrows="1" fold="1" page="1" pageScale="1" pageWidth="850" pageHeight="1100" math="0" shadow="0">
      <root>
        <mxCell id="0" />
        <mxCell id="1" parent="0" />
        <mxCell id="1fuxCIHO98j854imEB3C-1" value="Contract" style="ellipse;whiteSpace=wrap;html=1;aspect=fixed;" parent="1" vertex="1">
          <mxGeometry x="515" y="280" width="80" height="80" as="geometry" />
        </mxCell>
        <mxCell id="1fuxCIHO98j854imEB3C-2" value="&lt;div&gt;&lt;u&gt;Schema&lt;/u&gt;&lt;/div&gt;&lt;div&gt;- name&lt;/div&gt;" style="ellipse;whiteSpace=wrap;html=1;aspect=fixed;" parent="1" vertex="1">
          <mxGeometry x="515" y="490" width="80" height="80" as="geometry" />
        </mxCell>
        <mxCell id="1fuxCIHO98j854imEB3C-3" value="" style="endArrow=classic;html=1;rounded=0;" parent="1" source="1fuxCIHO98j854imEB3C-1" target="1fuxCIHO98j854imEB3C-2" edge="1">
          <mxGeometry relative="1" as="geometry">
            <mxPoint x="340" y="500" as="sourcePoint" />
            <mxPoint x="500" y="500" as="targetPoint" />
          </mxGeometry>
        </mxCell>
        <mxCell id="1fuxCIHO98j854imEB3C-4" value="HAS_SCHEMA" style="edgeLabel;resizable=0;html=1;align=center;verticalAlign=middle;" parent="1fuxCIHO98j854imEB3C-3" connectable="0" vertex="1">
          <mxGeometry relative="1" as="geometry" />
        </mxCell>
        <mxCell id="1fuxCIHO98j854imEB3C-5" value="&lt;div&gt;1?&lt;/div&gt;" style="edgeLabel;resizable=0;html=1;align=left;verticalAlign=bottom;" parent="1fuxCIHO98j854imEB3C-3" connectable="0" vertex="1">
          <mxGeometry x="-1" relative="1" as="geometry" />
        </mxCell>
        <mxCell id="1fuxCIHO98j854imEB3C-6" value="N" style="edgeLabel;resizable=0;html=1;align=right;verticalAlign=bottom;" parent="1fuxCIHO98j854imEB3C-3" connectable="0" vertex="1">
          <mxGeometry x="1" relative="1" as="geometry" />
        </mxCell>
        <mxCell id="1fuxCIHO98j854imEB3C-7" value="&lt;div&gt;&lt;u&gt;Property&lt;/u&gt;&lt;/div&gt;&lt;div&gt;- name&lt;/div&gt;&lt;div&gt;- description&lt;/div&gt;&lt;div&gt;- (example)&lt;/div&gt;&lt;div&gt;&lt;br&gt;&lt;/div&gt;" style="ellipse;whiteSpace=wrap;html=1;aspect=fixed;" parent="1" vertex="1">
          <mxGeometry x="505" y="685" width="100" height="100" as="geometry" />
        </mxCell>
        <mxCell id="1fuxCIHO98j854imEB3C-8" value="" style="endArrow=classic;html=1;rounded=0;" parent="1" source="1fuxCIHO98j854imEB3C-2" target="1fuxCIHO98j854imEB3C-7" edge="1">
          <mxGeometry relative="1" as="geometry">
            <mxPoint x="340" y="620" as="sourcePoint" />
            <mxPoint x="500" y="620" as="targetPoint" />
          </mxGeometry>
        </mxCell>
        <mxCell id="1fuxCIHO98j854imEB3C-9" value="&lt;div style=&quot;background-color: rgb(43, 43, 43); color: rgb(169, 183, 198); font-family: &amp;quot;JetBrains Mono&amp;quot;, monospace; font-size: 9.8pt;&quot;&gt;IS&lt;/div&gt;" style="edgeLabel;resizable=0;html=1;align=center;verticalAlign=middle;" parent="1fuxCIHO98j854imEB3C-8" connectable="0" vertex="1">
          <mxGeometry relative="1" as="geometry" />
        </mxCell>
        <mxCell id="1fuxCIHO98j854imEB3C-10" value="M" style="edgeLabel;resizable=0;html=1;align=left;verticalAlign=bottom;" parent="1fuxCIHO98j854imEB3C-8" connectable="0" vertex="1">
          <mxGeometry x="-1" relative="1" as="geometry">
            <mxPoint y="21" as="offset" />
          </mxGeometry>
        </mxCell>
        <mxCell id="1fuxCIHO98j854imEB3C-11" value="N" style="edgeLabel;resizable=0;html=1;align=right;verticalAlign=bottom;" parent="1fuxCIHO98j854imEB3C-8" connectable="0" vertex="1">
          <mxGeometry x="1" relative="1" as="geometry" />
        </mxCell>
        <mxCell id="1fuxCIHO98j854imEB3C-18" value="&lt;div&gt;&lt;u&gt;Property:NULL/BOOL&lt;/u&gt;&lt;/div&gt;" style="ellipse;whiteSpace=wrap;html=1;aspect=fixed;" parent="1" vertex="1">
          <mxGeometry x="750" y="800" width="80" height="80" as="geometry" />
        </mxCell>
        <mxCell id="1fuxCIHO98j854imEB3C-19" value="&lt;div&gt;&lt;u&gt;Property:String:&lt;/u&gt;&lt;/div&gt;" style="ellipse;whiteSpace=wrap;html=1;aspect=fixed;" parent="1" vertex="1">
          <mxGeometry x="605" y="840" width="80" height="80" as="geometry" />
        </mxCell>
        <mxCell id="1fuxCIHO98j854imEB3C-20" value="&lt;div&gt;&lt;u&gt;Property:Array:&lt;/u&gt;&lt;/div&gt;" style="ellipse;whiteSpace=wrap;html=1;aspect=fixed;" parent="1" vertex="1">
          <mxGeometry x="280" y="800" width="80" height="80" as="geometry" />
        </mxCell>
        <mxCell id="1fuxCIHO98j854imEB3C-21" value="&lt;u&gt;Property:Object&lt;/u&gt;" style="ellipse;whiteSpace=wrap;html=1;aspect=fixed;" parent="1" vertex="1">
          <mxGeometry x="870" y="695" width="80" height="80" as="geometry" />
        </mxCell>
        <mxCell id="1fuxCIHO98j854imEB3C-22" value="" style="endArrow=classic;html=1;rounded=0;exitX=0;exitY=0;exitDx=0;exitDy=0;" parent="1" source="1fuxCIHO98j854imEB3C-21" target="1fuxCIHO98j854imEB3C-7" edge="1">
          <mxGeometry relative="1" as="geometry">
            <mxPoint x="565" y="580" as="sourcePoint" />
            <mxPoint x="565" y="670" as="targetPoint" />
          </mxGeometry>
        </mxCell>
        <mxCell id="1fuxCIHO98j854imEB3C-23" value="&lt;div&gt;HAS_PROPERTY&lt;/div&gt;" style="edgeLabel;resizable=0;html=1;align=center;verticalAlign=middle;" parent="1fuxCIHO98j854imEB3C-22" connectable="0" vertex="1">
          <mxGeometry relative="1" as="geometry" />
        </mxCell>
        <mxCell id="1fuxCIHO98j854imEB3C-24" value="M" style="edgeLabel;resizable=0;html=1;align=left;verticalAlign=bottom;" parent="1fuxCIHO98j854imEB3C-22" connectable="0" vertex="1">
          <mxGeometry x="-1" relative="1" as="geometry">
            <mxPoint y="21" as="offset" />
          </mxGeometry>
        </mxCell>
        <mxCell id="1fuxCIHO98j854imEB3C-25" value="N" style="edgeLabel;resizable=0;html=1;align=right;verticalAlign=bottom;" parent="1fuxCIHO98j854imEB3C-22" connectable="0" vertex="1">
          <mxGeometry x="1" relative="1" as="geometry" />
        </mxCell>
        <mxCell id="1fuxCIHO98j854imEB3C-26" value="" style="endArrow=classic;html=1;rounded=0;exitX=0.5;exitY=0;exitDx=0;exitDy=0;" parent="1" source="1fuxCIHO98j854imEB3C-20" target="1fuxCIHO98j854imEB3C-7" edge="1">
          <mxGeometry relative="1" as="geometry">
            <mxPoint x="340" y="620" as="sourcePoint" />
            <mxPoint x="500" y="620" as="targetPoint" />
          </mxGeometry>
        </mxCell>
        <mxCell id="1fuxCIHO98j854imEB3C-27" value="HAS_ITEMS" style="edgeLabel;resizable=0;html=1;align=center;verticalAlign=middle;" parent="1fuxCIHO98j854imEB3C-26" connectable="0" vertex="1">
          <mxGeometry relative="1" as="geometry" />
        </mxCell>
        <mxCell id="1fuxCIHO98j854imEB3C-28" value="1" style="edgeLabel;resizable=0;html=1;align=left;verticalAlign=bottom;" parent="1fuxCIHO98j854imEB3C-26" connectable="0" vertex="1">
          <mxGeometry x="-1" relative="1" as="geometry" />
        </mxCell>
        <mxCell id="1fuxCIHO98j854imEB3C-29" value="N" style="edgeLabel;resizable=0;html=1;align=right;verticalAlign=bottom;" parent="1fuxCIHO98j854imEB3C-26" connectable="0" vertex="1">
          <mxGeometry x="1" relative="1" as="geometry" />
        </mxCell>
        <mxCell id="1fuxCIHO98j854imEB3C-30" value="&lt;div&gt;&lt;u&gt;Property:String&lt;br&gt;:ENUM&lt;/u&gt;&lt;/div&gt;&lt;div&gt;&lt;u&gt;- values&lt;br&gt;&lt;/u&gt;&lt;/div&gt;" style="ellipse;whiteSpace=wrap;html=1;aspect=fixed;" parent="1" vertex="1">
          <mxGeometry x="680" y="940" width="80" height="80" as="geometry" />
        </mxCell>
        <mxCell id="1fuxCIHO98j854imEB3C-35" value="" style="endArrow=block;html=1;rounded=0;endFill=0;exitX=0;exitY=1;exitDx=0;exitDy=0;" parent="1" source="1fuxCIHO98j854imEB3C-21" target="1fuxCIHO98j854imEB3C-7" edge="1">
          <mxGeometry width="50" height="50" relative="1" as="geometry">
            <mxPoint x="400" y="640" as="sourcePoint" />
            <mxPoint x="450" y="590" as="targetPoint" />
            <Array as="points" />
          </mxGeometry>
        </mxCell>
        <mxCell id="1fuxCIHO98j854imEB3C-36" value="" style="endArrow=block;html=1;rounded=0;endFill=0;exitX=1;exitY=0.5;exitDx=0;exitDy=0;" parent="1" source="1fuxCIHO98j854imEB3C-20" target="1fuxCIHO98j854imEB3C-7" edge="1">
          <mxGeometry width="50" height="50" relative="1" as="geometry">
            <mxPoint x="400" y="640" as="sourcePoint" />
            <mxPoint x="450" y="590" as="targetPoint" />
            <Array as="points" />
          </mxGeometry>
        </mxCell>
        <mxCell id="1fuxCIHO98j854imEB3C-37" value="" style="endArrow=block;html=1;rounded=0;endFill=0;" parent="1" source="1fuxCIHO98j854imEB3C-19" target="1fuxCIHO98j854imEB3C-7" edge="1">
          <mxGeometry width="50" height="50" relative="1" as="geometry">
            <mxPoint x="400" y="640" as="sourcePoint" />
            <mxPoint x="450" y="590" as="targetPoint" />
          </mxGeometry>
        </mxCell>
        <mxCell id="1fuxCIHO98j854imEB3C-38" value="" style="endArrow=block;html=1;rounded=0;endFill=0;" parent="1" source="1fuxCIHO98j854imEB3C-18" target="1fuxCIHO98j854imEB3C-7" edge="1">
          <mxGeometry width="50" height="50" relative="1" as="geometry">
            <mxPoint x="400" y="640" as="sourcePoint" />
            <mxPoint x="450" y="590" as="targetPoint" />
          </mxGeometry>
        </mxCell>
        <mxCell id="1fuxCIHO98j854imEB3C-39" value="" style="endArrow=block;html=1;rounded=0;endFill=0;" parent="1" source="1fuxCIHO98j854imEB3C-30" target="1fuxCIHO98j854imEB3C-19" edge="1">
          <mxGeometry width="50" height="50" relative="1" as="geometry">
            <mxPoint x="400" y="640" as="sourcePoint" />
            <mxPoint x="450" y="590" as="targetPoint" />
          </mxGeometry>
        </mxCell>
        <mxCell id="1fuxCIHO98j854imEB3C-40" value="&lt;div&gt;&lt;u&gt;discriminator&lt;/u&gt;:&lt;/div&gt;&lt;div&gt;- (propertyName)&lt;/div&gt;" style="ellipse;whiteSpace=wrap;html=1;aspect=fixed;" parent="1" vertex="1">
          <mxGeometry x="239" y="480" width="100" height="100" as="geometry" />
        </mxCell>
        <mxCell id="1fuxCIHO98j854imEB3C-41" value="&lt;div&gt;&lt;u&gt;xml:&lt;br&gt;&lt;/u&gt;&lt;/div&gt;&lt;div&gt;- TBD&lt;br&gt;&lt;/div&gt;" style="ellipse;whiteSpace=wrap;html=1;aspect=fixed;" parent="1" vertex="1">
          <mxGeometry x="760" y="445" width="80" height="80" as="geometry" />
        </mxCell>
        <mxCell id="1fuxCIHO98j854imEB3C-42" value="&lt;div&gt;&lt;u&gt;externalDocs:&lt;/u&gt;&lt;/div&gt;&lt;div&gt;- URL&lt;/div&gt;&lt;div&gt;- description&lt;br&gt;&lt;/div&gt;" style="ellipse;whiteSpace=wrap;html=1;aspect=fixed;" parent="1" vertex="1">
          <mxGeometry x="760" y="542" width="80" height="80" as="geometry" />
        </mxCell>
        <mxCell id="1fuxCIHO98j854imEB3C-43" value="" style="endArrow=classic;html=1;rounded=0;exitX=0;exitY=0;exitDx=0;exitDy=0;entryX=1;entryY=0;entryDx=0;entryDy=0;" parent="1" source="1fuxCIHO98j854imEB3C-2" target="1fuxCIHO98j854imEB3C-40" edge="1">
          <mxGeometry relative="1" as="geometry">
            <mxPoint x="570" y="530" as="sourcePoint" />
            <mxPoint x="500" y="620" as="targetPoint" />
          </mxGeometry>
        </mxCell>
        <mxCell id="1fuxCIHO98j854imEB3C-44" value="ALL_OF / ANY_OF / ONE_OF" style="edgeLabel;resizable=0;html=1;align=center;verticalAlign=middle;" parent="1fuxCIHO98j854imEB3C-43" connectable="0" vertex="1">
          <mxGeometry relative="1" as="geometry" />
        </mxCell>
        <mxCell id="1fuxCIHO98j854imEB3C-45" value="1" style="edgeLabel;resizable=0;html=1;align=left;verticalAlign=bottom;" parent="1fuxCIHO98j854imEB3C-43" connectable="0" vertex="1">
          <mxGeometry x="-1" relative="1" as="geometry">
            <mxPoint x="-17" as="offset" />
          </mxGeometry>
        </mxCell>
        <mxCell id="1fuxCIHO98j854imEB3C-46" value="0-1" style="edgeLabel;resizable=0;html=1;align=right;verticalAlign=bottom;" parent="1fuxCIHO98j854imEB3C-43" connectable="0" vertex="1">
          <mxGeometry x="1" relative="1" as="geometry">
            <mxPoint x="25" y="-5" as="offset" />
          </mxGeometry>
        </mxCell>
        <mxCell id="1fuxCIHO98j854imEB3C-47" value="" style="endArrow=classic;html=1;rounded=0;" parent="1" source="1fuxCIHO98j854imEB3C-2" target="1fuxCIHO98j854imEB3C-41" edge="1">
          <mxGeometry relative="1" as="geometry">
            <mxPoint x="340" y="620" as="sourcePoint" />
            <mxPoint x="500" y="620" as="targetPoint" />
          </mxGeometry>
        </mxCell>
        <mxCell id="1fuxCIHO98j854imEB3C-48" value="HAS_XML" style="edgeLabel;resizable=0;html=1;align=center;verticalAlign=middle;" parent="1fuxCIHO98j854imEB3C-47" connectable="0" vertex="1">
          <mxGeometry relative="1" as="geometry" />
        </mxCell>
        <mxCell id="1fuxCIHO98j854imEB3C-49" value="N" style="edgeLabel;resizable=0;html=1;align=left;verticalAlign=bottom;" parent="1fuxCIHO98j854imEB3C-47" connectable="0" vertex="1">
          <mxGeometry x="-1" relative="1" as="geometry" />
        </mxCell>
        <mxCell id="1fuxCIHO98j854imEB3C-50" value="M" style="edgeLabel;resizable=0;html=1;align=right;verticalAlign=bottom;" parent="1fuxCIHO98j854imEB3C-47" connectable="0" vertex="1">
          <mxGeometry x="1" relative="1" as="geometry" />
        </mxCell>
        <mxCell id="1fuxCIHO98j854imEB3C-52" value="" style="endArrow=classic;html=1;rounded=0;" parent="1" source="1fuxCIHO98j854imEB3C-2" target="1fuxCIHO98j854imEB3C-42" edge="1">
          <mxGeometry relative="1" as="geometry">
            <mxPoint x="340" y="620" as="sourcePoint" />
            <mxPoint x="500" y="620" as="targetPoint" />
          </mxGeometry>
        </mxCell>
        <mxCell id="1fuxCIHO98j854imEB3C-53" value="HAS_EXTERNAL_DOCS" style="edgeLabel;resizable=0;html=1;align=center;verticalAlign=middle;" parent="1fuxCIHO98j854imEB3C-52" connectable="0" vertex="1">
          <mxGeometry relative="1" as="geometry" />
        </mxCell>
        <mxCell id="1fuxCIHO98j854imEB3C-54" value="N" style="edgeLabel;resizable=0;html=1;align=left;verticalAlign=bottom;" parent="1fuxCIHO98j854imEB3C-52" connectable="0" vertex="1">
          <mxGeometry x="-1" relative="1" as="geometry" />
        </mxCell>
        <mxCell id="1fuxCIHO98j854imEB3C-55" value="M" style="edgeLabel;resizable=0;html=1;align=right;verticalAlign=bottom;" parent="1fuxCIHO98j854imEB3C-52" connectable="0" vertex="1">
          <mxGeometry x="1" relative="1" as="geometry" />
        </mxCell>
        <mxCell id="XJTGhRkwyUSGSBsS4dj7-1" value="" style="endArrow=classic;html=1;rounded=0;exitX=1;exitY=1;exitDx=0;exitDy=0;entryX=0;entryY=1;entryDx=0;entryDy=0;" parent="1" source="1fuxCIHO98j854imEB3C-40" target="1fuxCIHO98j854imEB3C-2" edge="1">
          <mxGeometry relative="1" as="geometry">
            <mxPoint x="650" y="620" as="sourcePoint" />
            <mxPoint x="810" y="620" as="targetPoint" />
          </mxGeometry>
        </mxCell>
        <mxCell id="XJTGhRkwyUSGSBsS4dj7-2" value="REF" style="edgeLabel;resizable=0;html=1;align=center;verticalAlign=middle;" parent="XJTGhRkwyUSGSBsS4dj7-1" connectable="0" vertex="1">
          <mxGeometry relative="1" as="geometry" />
        </mxCell>
        <mxCell id="XJTGhRkwyUSGSBsS4dj7-3" value="N" style="edgeLabel;resizable=0;html=1;align=left;verticalAlign=bottom;" parent="XJTGhRkwyUSGSBsS4dj7-1" connectable="0" vertex="1">
          <mxGeometry x="-1" relative="1" as="geometry" />
        </mxCell>
        <mxCell id="XJTGhRkwyUSGSBsS4dj7-4" value="M" style="edgeLabel;resizable=0;html=1;align=right;verticalAlign=bottom;" parent="XJTGhRkwyUSGSBsS4dj7-1" connectable="0" vertex="1">
          <mxGeometry x="1" relative="1" as="geometry" />
        </mxCell>
        <mxCell id="XJTGhRkwyUSGSBsS4dj7-6" value="&lt;u&gt;mapping:&lt;/u&gt;&lt;br&gt;TBD" style="ellipse;whiteSpace=wrap;html=1;aspect=fixed;" parent="1" vertex="1">
          <mxGeometry x="10" y="490" width="80" height="80" as="geometry" />
        </mxCell>
        <mxCell id="XJTGhRkwyUSGSBsS4dj7-7" value="" style="endArrow=classic;html=1;rounded=0;exitX=0;exitY=0.5;exitDx=0;exitDy=0;entryX=1;entryY=0.5;entryDx=0;entryDy=0;" parent="1" source="1fuxCIHO98j854imEB3C-40" target="XJTGhRkwyUSGSBsS4dj7-6" edge="1">
          <mxGeometry relative="1" as="geometry">
            <mxPoint x="650" y="620" as="sourcePoint" />
            <mxPoint x="810" y="620" as="targetPoint" />
          </mxGeometry>
        </mxCell>
        <mxCell id="XJTGhRkwyUSGSBsS4dj7-8" value="HAS_MAPPING" style="edgeLabel;resizable=0;html=1;align=center;verticalAlign=middle;" parent="XJTGhRkwyUSGSBsS4dj7-7" connectable="0" vertex="1">
          <mxGeometry relative="1" as="geometry" />
        </mxCell>
        <mxCell id="XJTGhRkwyUSGSBsS4dj7-9" value="1" style="edgeLabel;resizable=0;html=1;align=left;verticalAlign=bottom;" parent="XJTGhRkwyUSGSBsS4dj7-7" connectable="0" vertex="1">
          <mxGeometry x="-1" relative="1" as="geometry">
            <mxPoint x="-19" as="offset" />
          </mxGeometry>
        </mxCell>
        <mxCell id="XJTGhRkwyUSGSBsS4dj7-10" value="0-1" style="edgeLabel;resizable=0;html=1;align=right;verticalAlign=bottom;" parent="XJTGhRkwyUSGSBsS4dj7-7" connectable="0" vertex="1">
          <mxGeometry x="1" relative="1" as="geometry">
            <mxPoint x="20" as="offset" />
          </mxGeometry>
        </mxCell>
        <mxCell id="dxRFTEj9aeOIhhPaI1YU-1" value="&lt;u&gt;Property:Reference&lt;/u&gt;" style="ellipse;whiteSpace=wrap;html=1;aspect=fixed;" parent="1" vertex="1">
          <mxGeometry x="159" y="695" width="80" height="80" as="geometry" />
        </mxCell>
        <mxCell id="dxRFTEj9aeOIhhPaI1YU-2" value="" style="endArrow=block;html=1;rounded=0;endFill=0;exitX=1;exitY=1;exitDx=0;exitDy=0;" parent="1" source="dxRFTEj9aeOIhhPaI1YU-1" target="1fuxCIHO98j854imEB3C-7" edge="1">
          <mxGeometry width="50" height="50" relative="1" as="geometry">
            <mxPoint x="633" y="894" as="sourcePoint" />
            <mxPoint x="596" y="813" as="targetPoint" />
          </mxGeometry>
        </mxCell>
        <mxCell id="dxRFTEj9aeOIhhPaI1YU-3" value="" style="endArrow=classic;html=1;rounded=0;exitX=1;exitY=0;exitDx=0;exitDy=0;" parent="1" source="dxRFTEj9aeOIhhPaI1YU-1" target="1fuxCIHO98j854imEB3C-7" edge="1">
          <mxGeometry relative="1" as="geometry">
            <mxPoint x="361" y="905" as="sourcePoint" />
            <mxPoint x="506" y="791" as="targetPoint" />
          </mxGeometry>
        </mxCell>
        <mxCell id="dxRFTEj9aeOIhhPaI1YU-4" value="REF" style="edgeLabel;resizable=0;html=1;align=center;verticalAlign=middle;" parent="dxRFTEj9aeOIhhPaI1YU-3" connectable="0" vertex="1">
          <mxGeometry relative="1" as="geometry" />
        </mxCell>
        <mxCell id="dxRFTEj9aeOIhhPaI1YU-5" value="M" style="edgeLabel;resizable=0;html=1;align=left;verticalAlign=bottom;" parent="dxRFTEj9aeOIhhPaI1YU-3" connectable="0" vertex="1">
          <mxGeometry x="-1" relative="1" as="geometry">
            <mxPoint y="21" as="offset" />
          </mxGeometry>
        </mxCell>
        <mxCell id="dxRFTEj9aeOIhhPaI1YU-6" value="1" style="edgeLabel;resizable=0;html=1;align=right;verticalAlign=bottom;" parent="dxRFTEj9aeOIhhPaI1YU-3" connectable="0" vertex="1">
          <mxGeometry x="1" relative="1" as="geometry" />
        </mxCell>
        <mxCell id="dxRFTEj9aeOIhhPaI1YU-8" value="&lt;div&gt;&lt;u&gt;Property:&lt;br&gt;Integer/Number&lt;/u&gt;&lt;/div&gt;&lt;div&gt;- format&lt;br&gt;&lt;/div&gt;" style="ellipse;whiteSpace=wrap;html=1;aspect=fixed;" parent="1" vertex="1">
          <mxGeometry x="450" y="840" width="80" height="80" as="geometry" />
        </mxCell>
        <mxCell id="d4ke-fxb0Cyf9RBtDtbo-1" value="" style="endArrow=block;html=1;rounded=0;endFill=0;" edge="1" parent="1" source="dxRFTEj9aeOIhhPaI1YU-8" target="1fuxCIHO98j854imEB3C-7">
          <mxGeometry width="50" height="50" relative="1" as="geometry">
            <mxPoint x="634" y="856" as="sourcePoint" />
            <mxPoint x="591" y="787" as="targetPoint" />
          </mxGeometry>
        </mxCell>
      </root>
    </mxGraphModel>
  </diagram>
</mxfile>
